HIERARCHY
ROOT Hips
{
	OFFSET 0.00000 0.00000 0.00000
	CHANNELS 6 Xposition Yposition Zposition Zrotation Yrotation Xrotation 
	JOINT LHipJoint
	{
		OFFSET 0 0 0
		CHANNELS 3 Zrotation Yrotation Xrotation
		JOINT LeftUpLeg
		{
			OFFSET 1.82298 -1.58346 0.87084
			CHANNELS 3 Zrotation Yrotation Xrotation
			JOINT LeftLeg
			{
				OFFSET 2.43790 -6.69809 0.00000
				CHANNELS 3 Zrotation Yrotation Xrotation
				JOINT LeftFoot
				{
					OFFSET 2.59288 -7.12389 0.00000
					CHANNELS 3 Zrotation Yrotation Xrotation
					JOINT LeftToeBase
					{
						OFFSET 0.14552 -0.39981 2.13160
						CHANNELS 3 Zrotation Yrotation Xrotation
						End Site
						{
							OFFSET 0.00000 -0.00000 1.09427
						}
					}
				}
			}
		}
	}
	JOINT RHipJoint
	{
		OFFSET 0 0 0
		CHANNELS 3 Zrotation Yrotation Xrotation
		JOINT RightUpLeg
		{
			OFFSET -1.77229 -1.58346 0.87084
			CHANNELS 3 Zrotation Yrotation Xrotation
			JOINT RightLeg
			{
				OFFSET -2.50703 -6.88801 0.00000
				CHANNELS 3 Zrotation Yrotation Xrotation
				JOINT RightFoot
				{
					OFFSET -2.61620 -7.18796 0.00000
					CHANNELS 3 Zrotation Yrotation Xrotation
					JOINT RightToeBase
					{
						OFFSET -0.15190 -0.41735 2.15974
						CHANNELS 3 Zrotation Yrotation Xrotation
						End Site
						{
							OFFSET -0.00000 -0.00000 1.10919
						}
					}
				}
			}
		}
	}
	JOINT LowerBack
	{
		OFFSET 0 0 0
		CHANNELS 3 Zrotation Yrotation Xrotation
		JOINT Spine
		{
			OFFSET -0.03602 2.12423 -0.30249
			CHANNELS 3 Zrotation Yrotation Xrotation
			JOINT Spine1
			{
				OFFSET 0.02717 2.10043 0.12912
				CHANNELS 3 Zrotation Yrotation Xrotation
				JOINT Neck
				{
					OFFSET 0 0 0
					CHANNELS 3 Zrotation Yrotation Xrotation
					JOINT Neck1
					{
						OFFSET -0.06371 1.88656 0.11602
						CHANNELS 3 Zrotation Yrotation Xrotation
						JOINT Head
						{
							OFFSET 0.08208 1.87759 -0.11505
							CHANNELS 3 Zrotation Yrotation Xrotation
							End Site
							{
								OFFSET 0.03382 1.93090 -0.05483
							}
						}
					}
				}
				JOINT LeftShoulder
				{
					OFFSET 0 0 0
					CHANNELS 3 Zrotation Yrotation Xrotation
					JOINT LeftArm
					{
						OFFSET 3.30903 1.40357 0.20156
						CHANNELS 3 Zrotation Yrotation Xrotation
						JOINT LeftForeArm
						{
							OFFSET 5.43301 -0.00000 0.00000
							CHANNELS 3 Zrotation Yrotation Xrotation
							JOINT LeftHand
							{
								OFFSET 3.15936 -0.00000 0.00000
								CHANNELS 3 Zrotation Yrotation Xrotation
								JOINT LeftFingerBase
								{
									OFFSET 0 0 0
									CHANNELS 3 Zrotation Yrotation Xrotation
									JOINT LeftHandIndex1
									{
										OFFSET 0.71283 -0.00000 0.00000
										CHANNELS 3 Zrotation Yrotation Xrotation
										End Site
										{
											OFFSET 0.57470 -0.00000 0.00000
										}
									}
								}
								JOINT LThumb
								{
									OFFSET 0 0 0
									CHANNELS 3 Zrotation Yrotation Xrotation
									End Site
									{
										OFFSET 0.58347 -0.00000 0.58347
									}
								}
							}
						}
					}
				}
				JOINT RightShoulder
				{
					OFFSET 0 0 0
					CHANNELS 3 Zrotation Yrotation Xrotation
					JOINT RightArm
					{
						OFFSET -3.12947 1.60037 -0.00464
						CHANNELS 3 Zrotation Yrotation Xrotation
						JOINT RightForeArm
						{
							OFFSET -5.34194 -0.00000 0.00000
							CHANNELS 3 Zrotation Yrotation Xrotation
							JOINT RightHand
							{
								OFFSET -3.19351 -0.00000 0.00000
								CHANNELS 3 Zrotation Yrotation Xrotation
								JOINT RightFingerBase
								{
									OFFSET 0 0 0
									CHANNELS 3 Zrotation Yrotation Xrotation
									JOINT RightHandIndex1
									{
										OFFSET -0.74386 -0.00000 0.00000
										CHANNELS 3 Zrotation Yrotation Xrotation
										End Site
										{
											OFFSET -0.59972 -0.00000 0.00000
										}
									}
								}
								JOINT RThumb
								{
									OFFSET 0 0 0
									CHANNELS 3 Zrotation Yrotation Xrotation
									End Site
									{
										OFFSET -0.60888 -0.00000 0.60888
									}
								}
							}
						}
					}
				}
			}
		}
	}
}
MOTION
Frames: 14
Frame Time: 0.00407332
0.00 0.00 0.00 -178.4890 -0.6902 541.6190 0.0000 0.0000 0.0000 -21.0297 -15.9786 -28.8589 11.4909 18.1671 64.3658 2.8592 3.7728 -33.4515 0.0165 0.8285 2.2770 0.0000 0.0000 0.0000 25.3641 10.8651 -29.4976 -11.7924 -18.3015 65.3292 -3.1461 2.8352 -32.9171 -1.4589 7.6341 -21.6082 -1.6005 1.7050 7.6873 1.6793 2.1949 -3.0151 2.3585 1.1833 -7.6222 -6.3093 -3.8603 -4.9034 4.8245 -5.4981 11.4790 2.1998 -2.8280 4.5442 0.0000 0.0000 0.0000 -29.6765 -69.6367 24.1451 118.5241 -56.6906 -84.4281 -0.0000 -0.0000 26.5767 46.2052 12.7298 12.9432 -7.1250 0.0000 -0.0000 18.2868 47.1980 1.0248 0.0000 0.0000 0.0000 10.9225 45.6931 7.5421 -127.3511 54.0095 -91.6962 0.0000 0.0000 28.9624 -36.9422 -33.3920 22.4827 7.1250 -0.0000 -0.0000 -6.9044 -69.3804 4.0375
0.00 0.00 0.00 -177.9340 0.3375 542.8110 0.0000 0.0000 0.0000 -20.8905 -17.7766 -29.2040 11.8516 18.3272 65.5178 2.6669 9.8531 -35.5312 0.0534 -1.4909 -4.1005 0.0000 0.0000 0.0000 25.2472 9.5307 -31.0228 -12.1149 -18.4388 66.3527 -3.5785 -2.6018 -36.7839 -3.1262 10.8966 -31.9319 -1.3355 1.5348 8.1212 1.9170 2.1196 -3.5616 2.4523 1.1952 -8.4581 -6.1792 -3.7702 -5.2947 4.8775 -5.3367 11.2468 2.1994 -2.7244 4.5277 0.0000 -0.0000 0.0000 -4.0322 -71.0674 -2.8325 113.5307 -57.8008 -80.2277 -0.0000 -0.0000 22.8763 43.5119 13.4708 12.4704 -7.1250 0.0000 -0.0000 15.6790 47.6236 1.0392 0.0000 -0.0000 0.0000 -1.8304 46.0860 -5.8838 -121.1650 55.9914 -86.6265 0.0000 0.0000 28.4910 -37.9295 -32.9473 22.9691 7.1250 -0.0000 -0.0000 -8.6590 -69.2090 5.0352
0.00 0.00 0.00 -179.9160 -0.2955 543.5530 0.0000 0.0000 0.0000 -23.0041 -17.3025 -27.5874 10.8784 17.8751 62.3862 3.0422 3.7806 -34.4543 0.0338 1.1873 3.2642 0.0000 0.0000 0.0000 21.5208 11.2740 -38.9036 -16.2404 -19.6577 78.9470 -1.5948 1.3716 -23.4868 -2.0513 8.9721 -25.7080 -4.5214 1.7584 9.7338 1.1540 1.8212 -3.6892 3.4606 1.1884 -9.6242 -6.1440 -4.1212 -5.3894 5.7728 -5.7618 9.6270 2.4525 -2.8532 4.0991 0.0000 -0.0000 0.0000 9.8897 -71.0285 -16.9478 106.2227 -58.9819 -74.0012 -0.0000 -0.0000 21.1279 43.7086 13.4085 12.4985 -7.1250 0.0000 -0.0000 15.8694 47.5827 1.0361 0.0000 -0.0000 0.0000 -9.2689 44.0833 -12.2842 -114.1117 57.6851 -80.7190 0.0000 0.0000 29.6530 -41.8630 -33.8588 26.5308 7.1250 -0.0000 -0.0000 -15.3791 -71.4695 9.7646
0.00 0.00 0.00 -181.0890 0.6810 541.2500 0.0000 0.0000 0.0000 -25.0921 -14.2950 -22.7110 9.6040 17.1811 58.1565 2.9843 2.3447 -33.5730 0.0766 1.7850 4.9120 0.0000 0.0000 0.0000 17.5453 13.6890 -48.2648 -21.5286 -19.9439 94.4734 -0.6938 -5.2693 -18.5227 -1.4067 7.5021 -21.2117 -6.5826 2.1698 12.2324 0.8973 1.9427 -2.7056 4.2872 1.3616 -10.0996 -5.6627 -3.8106 -5.4109 5.6695 -5.3743 9.6020 2.3660 -2.6508 4.0555 -0.0000 -0.0000 0.0000 12.2967 -69.9959 -19.5320 100.8606 -59.5496 -69.3913 -0.0000 -0.0000 21.3016 44.5130 11.3778 10.9763 -7.1250 0.0000 -0.0000 16.2872 45.0960 0.0397 -0.0000 -0.0000 0.0000 -12.6908 43.9144 -13.7381 -107.9706 58.7439 -75.4973 0.0000 0.0000 31.0040 -43.7290 -33.3289 27.7261 7.1250 -0.0000 -0.0000 -19.0092 -71.4788 12.1194
0.00 0.00 0.00 -180.4370 -1.9212 535.8350 0.0000 0.0000 0.0000 -24.8803 -9.1861 -14.0118 8.0836 16.1804 52.8631 3.0463 -0.9631 -32.8365 0.0502 1.4459 3.9767 0.0000 0.0000 0.0000 9.6233 15.9440 -66.4942 -26.8152 -18.8479 110.3015 -0.5172 -7.1723 -18.0662 -1.6343 8.0588 -22.8928 -7.2094 1.3733 18.0665 1.4471 0.3269 -0.4439 5.6385 0.5570 -10.7498 -5.3184 -3.4244 -5.2942 5.1614 -4.7424 8.3302 2.4414 -2.3554 3.9905 0.0000 -0.0000 0.0000 18.1951 -66.1037 -23.9433 89.2784 -59.9980 -59.3751 -0.0000 -0.0000 20.5810 47.8500 9.9449 10.8020 -7.1250 0.0000 -0.0000 19.1860 43.7455 -0.6181 0.0000 -0.0000 0.0000 -19.2161 43.6892 -16.3738 -92.5372 59.9757 -62.1971 0.0000 0.0000 28.1114 -42.9854 -31.0766 25.6923 7.1250 -0.0000 -0.0000 -17.4436 -68.7247 10.0383
0.00 0.00 0.00 -181.4660 -4.4032 529.2870 0.0000 0.0000 0.0000 -26.2404 -3.8226 -4.6576 6.9590 15.2972 48.7189 2.9937 -0.2969 -32.7365 0.0080 -0.5775 -1.5870 0.0000 0.0000 0.0000 -1.6261 13.7165 -86.9755 -27.5199 -18.5863 112.4972 -0.3843 -7.1835 -16.4963 -1.0105 6.3960 -17.9378 -7.7226 1.1455 25.4523 0.9990 -1.1497 2.2607 6.0413 -0.3637 -11.5486 -5.4640 -2.8618 -6.3828 5.2975 -3.8409 7.4879 2.5565 -1.8702 3.8612 -0.0000 -0.0000 0.0000 23.7225 -60.1740 -29.5007 77.9656 -59.4456 -49.5973 -0.0000 -0.0000 19.3568 49.7755 9.7575 11.3307 -7.1250 0.0000 -0.0000 20.9951 43.8254 -0.6384 -0.0000 -0.0000 0.0000 -25.9745 41.1028 -20.0358 -70.6942 58.5438 -43.3625 0.0000 0.0000 24.4088 -38.6261 -29.1831 21.2865 7.1250 -0.0000 -0.0000 -10.5742 -65.2481 5.2021
0.00 0.00 0.00 -183.5990 -8.4158 524.7740 0.0000 0.0000 0.0000 -27.1631 8.5451 -2.6507 7.1867 15.4871 49.5769 2.6753 7.0664 -33.9961 0.0154 -0.8005 -2.2001 0.0000 0.0000 0.0000 -11.8608 9.8247 -109.9132 -24.5855 -19.4882 103.5179 -0.5323 -1.8472 -14.5755 -0.7020 5.3555 -14.9252 -7.3671 1.3489 32.8769 0.3312 -2.0288 3.1205 5.2526 -0.9999 -13.2592 -6.1116 -3.2404 -7.6746 5.1217 -4.0749 5.6528 2.5843 -1.9647 3.5019 -0.0000 0.0000 0.0000 18.6018 -58.0411 -35.6535 70.0318 -58.4384 -42.7977 -0.0000 -0.0000 4.6021 41.6219 17.7259 15.1375 -7.1250 0.0000 -0.0000 14.2808 52.5646 2.7033 -0.0000 0.0000 0.0000 -22.0045 32.3801 -19.5212 -67.8821 58.0684 -40.9696 0.0000 -0.0000 -3.4724 -25.5725 -35.1642 15.4080 7.1250 -0.0000 -0.0000 10.6584 -67.6869 -5.8400
0.00 0.00 0.00 -182.5030 -9.0704 525.1550 0.0000 0.0000 0.0000 -26.4330 11.7803 -5.1033 7.5664 15.7909 50.9855 2.5559 11.7990 -36.1810 0.0227 0.9722 2.6724 0.0000 0.0000 0.0000 -12.9015 10.6053 -113.0838 -23.5401 -19.6968 100.4011 -0.4436 1.1019 -12.2464 -0.3008 3.5264 -9.7480 -6.0893 1.0808 33.2355 0.6170 -1.8634 3.0001 4.8239 -0.9529 -13.6064 -6.2116 -3.4869 -7.4389 5.1815 -4.3925 5.1095 2.6032 -2.1225 3.2939 -0.0000 0.0000 0.0000 7.4645 -61.5761 -33.1962 82.9077 -59.8091 -53.8618 -0.0000 0.0000 -31.9326 38.7691 25.5189 19.0855 -7.1250 0.0000 -0.0000 11.1245 61.1137 4.3974 -0.0000 0.0000 0.0000 -12.5784 29.6185 -18.5414 -91.0335 59.9960 -60.8950 0.0000 -0.0000 -45.5266 -31.4111 -40.0594 21.4556 7.1250 -0.0000 -0.0000 7.7981 -74.4350 -5.4276
0.00 0.00 0.00 -181.5170 -8.9551 525.6880 0.0000 0.0000 0.0000 -26.0819 11.4134 -6.3189 7.9717 16.0984 52.4606 2.4726 14.7184 -37.8089 0.0535 1.4929 4.1061 0.0000 0.0000 0.0000 -12.6129 12.1527 -112.9625 -22.8847 -19.7993 98.4615 -0.3452 2.0762 -10.5722 -0.1443 2.4477 -6.7447 -5.2679 1.0782 33.1448 0.9899 -1.4380 2.7440 4.6194 -0.7513 -13.9284 -6.5058 -3.6379 -7.0534 5.1742 -4.5910 5.2173 2.6479 -2.2327 3.2806 0.0000 0.0000 0.0000 -9.2364 -64.9763 -23.5710 101.7368 -59.4730 -70.1464 -0.0000 0.0000 -64.5336 47.4215 22.3051 22.4434 -7.1250 0.0000 -0.0000 22.4875 59.7718 8.3640 0.0000 0.0000 0.0000 -2.7509 29.0684 -17.3591 -110.8213 58.2968 -77.9287 0.0000 -0.0000 -71.8080 -39.5494 -38.3692 27.1391 7.1250 -0.0000 -0.0000 -9.3120 -75.5753 6.7114
0.00 0.00 0.00 -180.0760 -8.9068 526.4190 0.0000 0.0000 0.0000 -25.3250 8.7753 -6.8611 8.4410 16.4342 54.1360 2.3527 16.9722 -38.9598 0.0391 1.2763 3.5093 0.0000 0.0000 0.0000 -11.2320 13.7996 -110.9385 -22.3105 -19.8715 96.7695 -0.2701 3.1580 -9.2367 -0.0749 1.7658 -4.8589 -4.1178 0.8858 32.4775 1.4466 -1.0799 2.5259 4.3409 -0.6042 -13.9561 -6.7363 -3.7478 -6.8617 5.1013 -4.7502 5.9039 2.6614 -2.3275 3.4987 -0.0000 0.0000 0.0000 -36.5078 -67.0802 -5.1157 122.5321 -55.5966 -87.7571 -0.0000 0.0000 -88.4936 51.6698 20.0872 23.4807 -7.1250 0.0000 -0.0000 27.6062 58.2988 9.4440 -0.0000 0.0000 0.0000 10.5493 28.9892 -13.4394 -127.5433 53.9395 -91.8517 0.0000 -0.0000 -79.1351 -41.2082 -39.3154 29.0226 7.1250 -0.0000 -0.0000 -12.6037 -77.1388 9.5100
0.00 0.00 0.00 -178.4690 -9.2395 527.2530 0.0000 0.0000 0.0000 -24.2946 5.9422 -7.1811 8.8628 16.7186 55.6143 2.2967 18.6870 -40.1025 0.0239 0.9979 2.7429 0.0000 0.0000 0.0000 -8.9498 15.0867 -107.0653 -21.7809 -19.9238 95.2132 -0.1711 4.8037 -7.5937 -0.1555 2.5405 -7.0020 -3.0567 0.4141 31.5362 1.9335 -1.1039 2.2057 4.2916 -0.6145 -13.9345 -6.7957 -3.7429 -6.7653 5.2293 -4.8216 7.3398 2.4379 -2.3574 3.5822 -0.0000 0.0000 0.0000 -67.1996 -63.0572 19.6554 136.0666 -50.2351 -98.5843 -0.0000 0.0000 -92.0210 47.7818 18.6249 19.3917 -7.1250 0.0000 -0.0000 21.7472 55.2630 5.6760 -0.0000 0.0000 0.0000 27.2340 26.9179 -4.5724 -139.2492 48.5085 -101.0003 0.0000 -0.0000 -74.8458 -36.0565 -37.5983 23.9507 7.1250 -0.0000 -0.0000 -2.9755 -73.5692 2.0128
0.00 0.00 0.00 -177.2810 -10.6118 528.9280 0.0000 0.0000 0.0000 -23.4824 3.0069 -8.0014 9.3064 17.0009 57.1437 2.4600 19.6368 -41.6427 0.0155 0.8034 2.2079 0.0000 0.0000 0.0000 -5.9744 16.0909 -98.4024 -20.6695 -19.9893 91.9577 0.0855 8.0888 -3.6735 -0.2070 2.9292 -8.0816 -2.7446 -0.3516 30.1076 2.3284 -1.7697 1.7999 4.7840 -0.8647 -13.7128 -6.9439 -3.8579 -7.8255 5.2393 -4.9367 8.4090 2.4338 -2.4083 4.0928 -0.0000 0.0000 0.0000 -90.8194 -46.1984 43.7002 148.4373 -42.1958 -107.5539 -0.0000 0.0000 -72.9699 41.3656 24.9960 20.4094 -7.1250 0.0000 -0.0000 14.6029 61.2413 5.8464 -0.0000 0.0000 0.0000 53.7051 18.5742 12.1680 -148.6018 42.0621 -107.6643 0.0000 -0.0000 -70.6646 -24.4292 -31.2274 13.2513 7.1250 -0.0000 -0.0000 8.9576 -63.4234 -4.0199
0.00 0.00 0.00 -178.5790 -12.7657 531.9430 0.0000 0.0000 0.0000 -23.9745 1.5439 -9.8935 9.5238 17.1332 57.8847 2.7457 18.7512 -42.1831 0.0000 -0.0048 -0.0133 0.0000 0.0000 0.0000 -5.2958 16.4010 -88.0168 -18.6975 -19.9593 86.1894 0.4384 11.6400 4.1515 -1.2235 7.0157 -19.7620 -4.9369 -0.1582 27.8905 2.1210 -2.0066 1.7607 6.1496 -0.7464 -13.3452 -7.3762 -4.6524 -8.7361 5.2830 -5.7865 6.5416 2.4546 -2.8022 3.7415 -0.0000 0.0000 0.0000 -100.9582 -27.9100 62.0115 150.4044 -40.5442 -108.8542 -0.0000 0.0000 -58.3487 37.1708 25.2802 17.9421 -7.1250 0.0000 -0.0000 9.0770 60.4059 3.4268 -0.0000 0.0000 0.0000 74.4972 4.9075 23.2499 -151.8589 39.2458 -109.7872 0.0000 -0.0000 -76.1805 -21.7775 -29.1583 11.0151 7.1250 -0.0000 -0.0000 10.7078 -60.6595 -4.1149
0.00 0.00 0.00 -181.3090 -17.8348 536.0860 0.0000 0.0000 0.0000 -24.0910 0.6214 -13.0117 10.0937 17.4622 59.8011 3.4675 15.0297 -42.6518 0.0875 -1.9084 -5.2524 0.0000 0.0000 0.0000 -4.9312 14.6282 -71.4166 -14.9842 -19.3858 75.1892 -0.0702 12.9347 19.2357 -4.9819 13.3634 -40.7443 -10.6154 0.2102 21.8279 3.1646 -2.3431 1.8015 10.4282 -0.7400 -9.6986 -9.8001 -5.8803 -5.9524 6.0606 -7.3635 2.8211 3.4313 -3.6363 2.6581 -0.0000 0.0000 0.0000 -101.3612 -15.9020 72.2289 139.9275 -48.1128 -101.5068 -0.0000 0.0000 -70.2605 35.7072 0.5634 0.4050 -7.1250 0.0000 -0.0000 7.2429 30.6295 -2.5604 -0.0000 0.0000 0.0000 85.1443 -4.3233 28.5570 -147.3960 43.0235 -106.8489 0.0000 -0.0000 -79.2896 -22.0871 -26.6721 10.3235 7.1250 -0.0000 -0.0000 9.0024 -58.2159 -2.9260
